<?xml version="1.0" encoding="UTF-8"?>
<svg id="Layer_1" data-name="Layer 1" xmlns="http://www.w3.org/2000/svg" viewBox="0 0 10 10">
  <defs>
    <style>
      .cls-1, .cls-2, .cls-3, .cls-4 {
        stroke-linecap: round;
      }

      .cls-1, .cls-2, .cls-3, .cls-4, .cls-5, .cls-6 {
        stroke-miterlimit: 10;
      }

      .cls-1, .cls-2, .cls-4, .cls-5, .cls-6 {
        stroke: #231f20;
      }

      .cls-1, .cls-5, .cls-6 {
        stroke-width: .21px;
      }

      .cls-1, .cls-6 {
        fill: #f7e19a;
      }

      .cls-2 {
        fill: #231f20;
      }

      .cls-2, .cls-3, .cls-4 {
        stroke-width: .13px;
      }

      .cls-3 {
        fill: #fff;
        stroke: #fff;
      }

      .cls-4 {
        fill: none;
      }

      .cls-5 {
        fill: #f4cd60;
      }

      .cls-7 {
        fill: #f7c4ec;
        stroke-width: 0px;
      }
    </style>
  </defs>
  <g>
    <path class="cls-6" d="M4.26,2.84c0-.85-.59-1.54-1.32-1.54s-1.63.69-1.63,1.54c0,.64.51,1.19,1.07,1.42"/>
    <path class="cls-4" d="M2.27,2.51s.52.26.74.82"/>
  </g>
  <g>
    <path class="cls-6" d="M5.99,2.75c0-.85.59-1.54,1.32-1.54s1.63.69,1.63,1.54c0,.64-.51,1.19-1.07,1.42"/>
    <path class="cls-4" d="M7.7,2.44s-.52.26-.74.82"/>
  </g>
  <g>
    <path class="cls-5" d="M6.56,8.49s2.03.26,1.06-.47"/>
    <path class="cls-4" d="M7.62,8.27s-.08-.09-.31-.06"/>
  </g>
  <g>
    <path class="cls-5" d="M3.77,8.48s-2.03.26-1.06-.47"/>
    <path class="cls-4" d="M2.74,8.27s.08-.09.31-.06"/>
  </g>
  <path class="cls-6" d="M8.63,6.15c0,1.65-1.56,2.51-3.49,2.51s-3.49-.86-3.49-2.51,1.56-3.46,3.49-3.46,3.49,1.81,3.49,3.46Z"/>
  <path class="cls-1" d="M4.34,3.37s-.34-1.3.75-1.71c0,0-.29.94-.32,1.23,0,0,.26-1.11,1.38-.65,0,0-.68.1-.86.62"/>
  <line class="cls-4" x1="1.12" y1="4.74" x2="2.15" y2="5.24"/>
  <line class="cls-4" x1="1.03" y1="5.86" x2="2.17" y2="5.51"/>
  <line class="cls-4" x1="7.89" y1="5.12" x2="9.09" y2="4.62"/>
  <line class="cls-4" x1="7.97" y1="5.44" x2="9.15" y2="5.68"/>
  <ellipse class="cls-2" cx="5.08" cy="4.66" rx=".38" ry=".08"/>
  <path class="cls-4" d="M6.08,4.79c0,.27-.22.49-.49.49s-.49-.22-.49-.49"/>
  <path class="cls-4" d="M5.08,4.74c0,.27-.22.49-.49.49s-.49-.22-.49-.49"/>
  <path class="cls-5" d="M3.14,5.92c-.07.04.01,0,.11-.03.04-.01.08.01.1.04.03.04.03.09.02.14-.01.04-.03.08-.06.11-.03.03-.08.05-.13.07-.06.02-.12.03-.18.03s-.12-.02-.17-.06c-.04-.04-.07-.09-.09-.15-.03-.08-.04-.16-.03-.24.01-.06.05-.13.1-.17.06-.04.13-.07.21-.07.06,0,.12.03.16.07.02.02.04.04.04.07,0,.03,0,.07-.02.09s-.04.05-.07.07Z"/>
  <path class="cls-5" d="M7.04,5.92c.07.04-.01,0-.11-.03-.04-.01-.08.01-.1.04-.03.04-.03.09-.02.14.01.04.03.08.06.11.03.03.08.05.13.07.06.02.12.03.18.03s.12-.02.17-.06c.04-.04.07-.09.09-.15.03-.08.04-.16.03-.24-.01-.06-.05-.13-.1-.17-.06-.04-.13-.07-.21-.07-.06,0-.12.03-.16.07-.02.02-.04.04-.04.07,0,.03,0,.07.02.09s.04.05.07.07Z"/>
  <ellipse class="cls-7" cx="6.72" cy="5.04" rx=".49" ry=".35"/>
  <ellipse class="cls-7" cx="3.42" cy="5.04" rx=".49" ry=".35"/>
  <g>
    <ellipse class="cls-2" cx="6.85" cy="4.46" rx=".23" ry=".45"/>
    <ellipse class="cls-3" cx="6.85" cy="4.17" rx=".05" ry=".13"/>
  </g>
  <g>
    <ellipse class="cls-2" cx="3.19" cy="4.55" rx=".23" ry=".45"/>
    <ellipse class="cls-3" cx="3.19" cy="4.26" rx=".05" ry=".13"/>
  </g>
</svg>